<?xml version="1.0" encoding="UTF-8"?>
<!DOCTYPE svg PUBLIC "-//W3C//DTD SVG 1.1//EN" "http://www.w3.org/Graphics/SVG/1.1/DTD/svg11.dtd">
<svg xmlns="http://www.w3.org/2000/svg" version="1.1" width="430px" height="540px" style="shape-rendering:geometricPrecision; text-rendering:geometricPrecision; image-rendering:optimizeQuality; fill-rule:evenodd; clip-rule:evenodd" xmlns:xlink="http://www.w3.org/1999/xlink">
<g><path style="opacity:0.969" fill="#f4f4f6" d="M 353.5,1.5 C 379.611,2.7727 394.444,16.4394 398,42.5C 400.146,96.3738 379.979,139.874 337.5,173C 328.288,179.073 318.288,183.407 307.5,186C 300.918,186.81 294.418,186.643 288,185.5C 282.5,193.667 277,201.833 271.5,210C 273.532,212.013 275.866,213.513 278.5,214.5C 296.627,208.957 314.96,208.123 333.5,212C 349.924,217.431 362.424,227.598 371,242.5C 383.809,266.344 385.809,291.011 377,316.5C 368.993,332.173 356.826,343.34 340.5,350C 333.169,352.556 325.835,354.889 318.5,357C 354.711,400.209 390.544,443.709 426,487.5C 429.526,499.457 425.193,506.457 413,508.5C 409.871,508.671 407.037,507.838 404.5,506C 375,470.5 345.5,435 316,399.5C 316.242,411.482 316.409,423.482 316.5,435.5C 252.232,436.56 188.566,443.227 125.5,455.5C 124.902,448.812 124.069,442.146 123,435.5C 122.333,434.167 121.667,434.167 121,435.5C 98.8918,469.273 76.3918,502.773 53.5,536C 37.6228,541.817 30.1228,536.317 31,519.5C 58.7942,476.742 86.9609,434.242 115.5,392C 90.4822,392.664 67.4822,386.331 46.5,373C 25.2232,355.523 16.7232,333.023 21,305.5C 29.0105,262.154 55.0105,239.487 99,237.5C 103.874,238.302 108.708,238.302 113.5,237.5C 121.339,220.49 133.006,206.656 148.5,196C 144.5,191.333 140.5,186.667 136.5,182C 116.138,185.13 96.805,181.797 78.5,172C 42.4645,152.303 17.6312,123.137 4,84.5C -1.23106,68.2104 -0.564389,52.2104 6,36.5C 15.2418,22.7097 28.2418,15.7097 45,15.5C 72.7942,18.3151 96.9609,29.1485 117.5,48C 139.613,67.3878 154.78,91.2211 163,119.5C 167.13,134.611 165.963,149.278 159.5,163.5C 164.809,170.644 170.309,177.644 176,184.5C 176.956,185.894 178.289,186.561 180,186.5C 202.537,185.007 224.204,188.674 245,197.5C 251.376,187.913 257.876,178.413 264.5,169C 258.948,160.344 255.781,150.844 255,140.5C 254.981,91.7106 273.481,51.5439 310.5,20C 323.253,9.95185 337.586,3.78519 353.5,1.5 Z M 373.5,28.5 C 381.54,38.7834 385.54,50.6168 385.5,64C 382.644,104.395 364.977,136.395 332.5,160C 323.044,166.113 312.711,169.613 301.5,170.5C 282.829,168.825 271.829,158.825 268.5,140.5C 276.389,161.277 291.056,168.444 312.5,162C 326.327,156.331 338.161,147.831 348,136.5C 365.721,115.717 376.388,91.7169 380,64.5C 381.311,51.833 379.144,39.833 373.5,28.5 Z M 32.5,36.5 C 43.6926,30.9827 55.3592,30.1493 67.5,34C 96.8328,43.575 119.666,61.4083 136,87.5C 144.243,101.23 149.077,116.063 150.5,132C 148.604,158.236 134.604,170.569 108.5,169C 134.186,166.979 145.686,153.146 143,127.5C 136.398,98.7949 121.565,75.2949 98.5,57C 83.2091,44.0243 65.5424,36.5243 45.5,34.5C 41.1535,35.1684 36.8202,35.8351 32.5,36.5 Z M 159.5,178.5 C 160.239,178.369 160.906,178.536 161.5,179C 248.119,283.741 334.619,388.575 421,493.5C 421.563,494.725 421.23,495.725 420,496.5C 333.333,391.833 246.667,287.167 160,182.5C 159.51,181.207 159.343,179.873 159.5,178.5 Z M 270.5,190.5 C 271.5,190.5 272.5,190.5 273.5,190.5C 273.509,192.308 273.009,193.975 272,195.5C 259,214.833 246,234.167 233,253.5C 231,251.5 231,249.5 233,247.5C 246.018,228.785 258.518,209.785 270.5,190.5 Z M 195.5,208.5 C 208.504,208.571 221.504,210.405 234.5,214C 229.21,221.413 224.043,228.913 219,236.5C 211.678,226.683 203.845,217.35 195.5,208.5 Z M 127.5,345.5 C 110.937,336.375 103.271,322.375 104.5,303.5C 103.839,298.746 102.339,298.412 100,302.5C 95.0289,320.615 98.8622,336.615 111.5,350.5C 93.4725,339.098 86.3058,322.765 90,301.5C 90.8725,298.382 92.0392,295.382 93.5,292.5C 91.405,291.771 89.5716,292.437 88,294.5C 76.8856,317.696 80.0522,338.696 97.5,357.5C 76.8838,344.85 68.7171,326.516 73,302.5C 75.267,294.989 78.267,287.989 82,281.5C 65.4106,299.107 61.0772,319.441 69,342.5C 71.741,348.988 75.241,354.988 79.5,360.5C 59.6502,349.803 51.1502,333.137 54,310.5C 59.1509,288.033 71.3176,270.533 90.5,258C 95.7722,254.578 101.439,252.578 107.5,252C 103.97,260.923 100.637,269.923 97.5,279C 98.1667,279.667 98.8333,279.667 99.5,279C 110.97,263.23 122.803,247.73 135,232.5C 142.931,224.37 151.931,217.703 162,212.5C 175.62,228.908 189.12,245.408 202.5,262C 183.961,288.908 165.795,316.075 148,343.5C 133.525,338.688 123.191,329.355 117,315.5C 115.545,311.52 115.211,307.52 116,303.5C 112.125,314.231 113.125,324.564 119,334.5C 121.358,338.558 124.192,342.225 127.5,345.5 Z M 341.5,334.5 C 359.134,312.606 360.634,289.606 346,265.5C 343.705,262.203 341.038,259.203 338,256.5C 342.061,263.643 345.394,271.31 348,279.5C 352.015,302.127 344.182,319.127 324.5,330.5C 336.902,314.183 340.069,296.183 334,276.5C 332.086,271.665 329.419,267.331 326,263.5C 337.522,290.938 330.855,312.938 306,329.5C 309.518,323.472 312.852,317.138 316,310.5C 321.26,296.487 320.593,282.821 314,269.5C 318.636,292.569 311.303,310.902 292,324.5C 291.308,323.975 290.808,323.308 290.5,322.5C 300.446,309.83 304.613,295.497 303,279.5C 302.751,278.376 302.251,277.376 301.5,276.5C 301.504,291.513 295.671,304.18 284,314.5C 268.356,296.535 253.189,278.202 238.5,259.5C 246.419,247.327 254.586,235.327 263,223.5C 276.213,229.856 289.379,236.356 302.5,243C 305.276,244.037 308.11,244.87 311,245.5C 312.404,245.491 313.57,244.991 314.5,244C 311.048,243.108 308.048,241.442 305.5,239C 300.801,233.966 295.801,229.3 290.5,225C 333.199,214.946 359.366,231.446 369,274.5C 373.431,297.549 366.598,316.382 348.5,331C 346.423,332.705 344.09,333.872 341.5,334.5 Z M 213.5,276.5 C 214.922,276.75 215.922,277.583 216.5,279C 160.209,363.081 104.043,447.247 48,531.5C 45.6667,532.833 44.6667,532.167 45,529.5C 101.389,445.285 157.555,360.952 213.5,276.5 Z M 220.5,285.5 C 222.371,285.859 223.871,286.859 225,288.5C 235.978,302.312 247.144,315.979 258.5,329.5C 256.78,330.934 254.78,331.767 252.5,332C 230.107,334.192 207.774,336.525 185.5,339C 197.415,321.266 209.082,303.433 220.5,285.5 Z M 271.5,349.5 C 272.873,349.343 274.207,349.51 275.5,350C 279.956,356.125 284.789,361.958 290,367.5C 293.427,382.99 295.594,398.657 296.5,414.5C 254.594,416.224 212.928,420.058 171.5,426C 184.733,421.2 198.067,416.7 211.5,412.5C 210.167,412.167 208.833,411.833 207.5,411.5C 193.461,412.738 179.461,413.905 165.5,415C 178.954,409.737 192.621,405.071 206.5,401C 191.445,400.885 176.445,401.551 161.5,403C 175.114,398.129 188.781,393.462 202.5,389C 187.785,389.005 173.118,389.671 158.5,391C 171.324,386.003 184.324,381.503 197.5,377.5C 195.667,377.167 193.833,376.833 192,376.5C 180.782,377.408 169.615,378.242 158.5,379C 160.483,377.111 162.816,375.778 165.5,375C 174.405,371.714 183.405,368.714 192.5,366C 184.803,365.232 177.137,365.398 169.5,366.5C 168.833,366.333 168.167,366.167 167.5,366C 168.257,364.488 169.257,363.154 170.5,362C 204.144,356.467 237.811,352.301 271.5,349.5 Z"/></g>
</svg>
